<svg width="153" height="30" viewBox="0 0 153 30" fill="none" xmlns="http://www.w3.org/2000/svg">
<path d="M68.4586 1.89944L56.6333 4.16567C56.5387 4.18376 56.4531 4.23206 56.3897 4.30297C56.3263 4.37389 56.2889 4.46339 56.2832 4.55741L55.5558 16.5734C55.5388 16.8564 55.8045 17.076 56.0868 17.0123L59.3792 16.2693C59.6873 16.1997 59.9656 16.4651 59.9023 16.768L58.9242 21.4528C58.8583 21.768 59.1609 22.0377 59.4757 21.9442L61.5093 21.3399C61.8246 21.2463 62.1275 21.5167 62.0608 21.8322L60.5064 29.1909C60.4091 29.6512 61.0351 29.9021 61.2961 29.5075L61.4705 29.244L71.1064 10.4358C71.2677 10.1208 70.9897 9.76181 70.6358 9.82852L67.247 10.4682C66.9284 10.5283 66.6575 10.2382 66.7474 9.93342L68.9593 2.434C69.0493 2.1286 68.7774 1.83831 68.4586 1.89944Z" fill="#26282C"/>
<path d="M18.0816 25.1051H8.27336L6.70105 29.7033H0L9.50875 3.6712H16.9211L26.4298 29.7033H19.6539L18.0816 25.1051ZM16.4344 20.2101L13.1775 10.6799L9.95798 20.2101H16.4344Z" fill="#26282C"/>
<path d="M45.2341 16.3535C46.7565 16.6749 47.9794 17.4289 48.9028 18.6156C49.8263 19.7775 50.288 21.1125 50.288 22.6205C50.288 24.796 49.5143 26.5266 47.9669 27.8121C46.4445 29.0729 44.3107 29.7033 41.5654 29.7033H29.3238V3.6712H41.1536C43.824 3.6712 45.908 4.27689 47.4054 5.48826C48.9278 6.69963 49.689 8.34363 49.689 10.4203C49.689 11.953 49.2772 13.2262 48.4536 14.2398C47.655 15.2534 46.5818 15.958 45.2341 16.3535ZM35.7254 14.2027H39.9182C40.9664 14.2027 41.765 13.9802 42.3141 13.5352C42.8881 13.0655 43.1751 12.3857 43.1751 11.4957C43.1751 10.6057 42.8881 9.92584 42.3141 9.45612C41.765 8.9864 40.9664 8.75155 39.9182 8.75155H35.7254V14.2027ZM40.4423 24.5859C41.5155 24.5859 42.3391 24.351 42.9131 23.8813C43.5121 23.3869 43.8115 22.6823 43.8115 21.7676C43.8115 20.8529 43.4996 20.136 42.8756 19.6168C42.2767 19.0977 41.4406 18.8381 40.3674 18.8381H35.7254V24.5859H40.4423Z" fill="#26282C"/>
<path d="M104.384 3.6712L95.0625 29.7033H87.0512L77.7296 3.6712H84.543L91.0569 23.3251L97.6082 3.6712H104.384Z" fill="#26282C"/>
<path d="M110.279 6.86032C109.156 6.86032 108.233 6.53894 107.509 5.89617C106.81 5.22868 106.461 4.41286 106.461 3.4487C106.461 2.45983 106.81 1.64401 107.509 1.00124C108.233 0.333745 109.156 0 110.279 0C111.377 0 112.276 0.333745 112.974 1.00124C113.698 1.64401 114.06 2.45983 114.06 3.4487C114.06 4.41286 113.698 5.22868 112.974 5.89617C112.276 6.53894 111.377 6.86032 110.279 6.86032ZM113.461 9.01112V29.7033H107.06V9.01112H113.461Z" fill="#26282C"/>
<path d="M129.743 24.3263V29.7033H126.486C124.165 29.7033 122.356 29.1471 121.058 28.0346C119.76 26.8974 119.111 25.0556 119.111 22.5093V14.2769H116.565V9.01112H119.111V3.96786H125.513V9.01112H129.705V14.2769H125.513V22.5834C125.513 23.2015 125.662 23.6465 125.962 23.9184C126.261 24.1904 126.76 24.3263 127.459 24.3263H129.743Z" fill="#26282C"/>
<path d="M153 19.0235C153 19.6168 152.963 20.2349 152.888 20.8776H138.4C138.5 22.1632 138.912 23.152 139.635 23.8443C140.384 24.5117 141.295 24.8455 142.368 24.8455C143.965 24.8455 145.076 24.178 145.7 22.843H152.513C152.164 24.2027 151.528 25.4265 150.604 26.5142C149.706 27.602 148.57 28.4549 147.197 29.0729C145.825 29.691 144.29 30 142.593 30C140.546 30 138.724 29.5674 137.127 28.7021C135.53 27.8368 134.282 26.6007 133.384 24.9938C132.485 23.3869 132.036 21.508 132.036 19.3572C132.036 17.2064 132.473 15.3276 133.346 13.7206C134.245 12.1137 135.492 10.8776 137.09 10.0124C138.687 9.14709 140.521 8.71446 142.593 8.71446C144.614 8.71446 146.411 9.13473 147.984 9.97528C149.556 10.8158 150.779 12.0148 151.652 13.5723C152.551 15.1298 153 16.9468 153 19.0235ZM146.449 17.3548C146.449 16.267 146.074 15.4017 145.326 14.759C144.577 14.1162 143.641 13.7948 142.518 13.7948C141.445 13.7948 140.534 14.1038 139.785 14.7219C139.061 15.3399 138.612 16.2176 138.437 17.3548H146.449Z" fill="#26282C"/>
</svg>
